<mxfile host="app.diagrams.net" modified="2022-08-16T06:25:30.325Z" agent="5.0 (Macintosh; Intel Mac OS X 10_15_7) AppleWebKit/537.36 (KHTML, like Gecko) Chrome/104.0.0.0 Safari/537.36" etag="uBfIhUqevS1Xn5R0hkHT" version="20.2.4" type="github">
  <diagram id="rysXZyC8RyC071z0D7B4" name="第 1 页">
    <mxGraphModel dx="946" dy="614" grid="1" gridSize="10" guides="1" tooltips="1" connect="1" arrows="1" fold="1" page="1" pageScale="1" pageWidth="827" pageHeight="1169" math="0" shadow="0">
      <root>
        <mxCell id="0" />
        <mxCell id="1" parent="0" />
        <mxCell id="eqcLgEMAK7zMJOBmZANw-3" value="" style="edgeStyle=orthogonalEdgeStyle;rounded=0;orthogonalLoop=1;jettySize=auto;html=1;" edge="1" parent="1" source="eqcLgEMAK7zMJOBmZANw-1" target="eqcLgEMAK7zMJOBmZANw-2">
          <mxGeometry relative="1" as="geometry" />
        </mxCell>
        <mxCell id="eqcLgEMAK7zMJOBmZANw-4" value="" style="edgeStyle=orthogonalEdgeStyle;rounded=0;orthogonalLoop=1;jettySize=auto;html=1;" edge="1" parent="1" source="eqcLgEMAK7zMJOBmZANw-1" target="eqcLgEMAK7zMJOBmZANw-2">
          <mxGeometry relative="1" as="geometry" />
        </mxCell>
        <mxCell id="eqcLgEMAK7zMJOBmZANw-6" value="" style="edgeStyle=orthogonalEdgeStyle;rounded=0;orthogonalLoop=1;jettySize=auto;html=1;" edge="1" parent="1" source="eqcLgEMAK7zMJOBmZANw-1" target="eqcLgEMAK7zMJOBmZANw-5">
          <mxGeometry relative="1" as="geometry" />
        </mxCell>
        <mxCell id="eqcLgEMAK7zMJOBmZANw-8" value="" style="edgeStyle=orthogonalEdgeStyle;rounded=0;orthogonalLoop=1;jettySize=auto;html=1;" edge="1" parent="1" source="eqcLgEMAK7zMJOBmZANw-1" target="eqcLgEMAK7zMJOBmZANw-7">
          <mxGeometry relative="1" as="geometry" />
        </mxCell>
        <mxCell id="eqcLgEMAK7zMJOBmZANw-10" value="" style="edgeStyle=orthogonalEdgeStyle;rounded=0;orthogonalLoop=1;jettySize=auto;html=1;" edge="1" parent="1" source="eqcLgEMAK7zMJOBmZANw-1" target="eqcLgEMAK7zMJOBmZANw-9">
          <mxGeometry relative="1" as="geometry" />
        </mxCell>
        <mxCell id="eqcLgEMAK7zMJOBmZANw-12" value="" style="edgeStyle=orthogonalEdgeStyle;rounded=0;orthogonalLoop=1;jettySize=auto;html=1;" edge="1" parent="1" source="eqcLgEMAK7zMJOBmZANw-1" target="eqcLgEMAK7zMJOBmZANw-11">
          <mxGeometry relative="1" as="geometry" />
        </mxCell>
        <mxCell id="eqcLgEMAK7zMJOBmZANw-1" value="AppModule" style="rounded=1;whiteSpace=wrap;html=1;" vertex="1" parent="1">
          <mxGeometry x="354" y="470" width="120" height="60" as="geometry" />
        </mxCell>
        <mxCell id="eqcLgEMAK7zMJOBmZANw-2" value="BugCenter" style="whiteSpace=wrap;html=1;rounded=1;" vertex="1" parent="1">
          <mxGeometry x="490" y="610" width="120" height="60" as="geometry" />
        </mxCell>
        <mxCell id="eqcLgEMAK7zMJOBmZANw-5" value="Dashboard" style="whiteSpace=wrap;html=1;rounded=1;" vertex="1" parent="1">
          <mxGeometry x="80" y="610" width="120" height="60" as="geometry" />
        </mxCell>
        <mxCell id="eqcLgEMAK7zMJOBmZANw-7" value="AssetCnter" style="whiteSpace=wrap;html=1;rounded=1;" vertex="1" parent="1">
          <mxGeometry x="220" y="610" width="120" height="60" as="geometry" />
        </mxCell>
        <mxCell id="eqcLgEMAK7zMJOBmZANw-9" value="AlarmCenter" style="whiteSpace=wrap;html=1;rounded=1;" vertex="1" parent="1">
          <mxGeometry x="630" y="610" width="120" height="60" as="geometry" />
        </mxCell>
        <mxCell id="eqcLgEMAK7zMJOBmZANw-11" value="AuditCenter" style="whiteSpace=wrap;html=1;rounded=1;" vertex="1" parent="1">
          <mxGeometry x="354" y="610" width="120" height="60" as="geometry" />
        </mxCell>
      </root>
    </mxGraphModel>
  </diagram>
</mxfile>
